<svg viewBox="0 0 15 15" fill="none" xmlns="http://www.w3.org/2000/svg">
<path d="M7.49997 4.24707L9.14197 8.00007H5.85797L7.49997 4.24707Z" fill="currentColor"/>
<path fill-rule="evenodd" clip-rule="evenodd" d="M7.36299 0.0201117C7.45254 -0.00540182 7.54744 -0.00540182 7.63699 0.0201117L14.637 2.02011C14.7505 2.05246 14.8489 2.12391 14.9148 2.22182C14.9806 2.31973 15.0098 2.43779 14.997 2.55511L13.997 11.5551C13.9878 11.638 13.958 11.7174 13.9103 11.7858C13.8626 11.8543 13.7986 11.9097 13.724 11.9471L7.72399 14.9471C7.65446 14.982 7.57776 15.0001 7.49999 15.0001C7.42222 15.0001 7.34552 14.982 7.27599 14.9471L1.27599 11.9471C1.20139 11.9097 1.13733 11.8543 1.08965 11.7858C1.04196 11.7174 1.01217 11.638 1.00299 11.5551L0.0029876 2.55511C-0.0100432 2.43763 0.0189671 2.31933 0.0848703 2.22121C0.150774 2.12309 0.249308 2.05149 0.362988 2.01911L7.36299 0.0201117ZM7.49999 1.75211L11.458 10.7991L10.542 11.1991L9.57899 9.00011H5.42099L4.45799 11.2001L3.54199 10.8001L7.49999 1.75211Z" fill="currentColor"/>
</svg>
