<svg viewBox="0 0 512 512" fill="currentColor" xmlns="http://www.w3.org/2000/svg">
<path d="M32 456C32 462.365 34.5286 468.47 39.0294 472.971C43.5303 477.471 49.6348 480 56 480H456C462.365 480 468.47 477.471 472.971 472.971C477.471 468.47 480 462.365 480 456V176H32V456ZM352 212C352 210.939 352.421 209.922 353.172 209.172C353.922 208.421 354.939 208 356 208H396C397.061 208 398.078 208.421 398.828 209.172C399.579 209.922 400 210.939 400 212V252C400 253.061 399.579 254.078 398.828 254.828C398.078 255.579 397.061 256 396 256H356C354.939 256 353.922 255.579 353.172 254.828C352.421 254.078 352 253.061 352 252V212ZM352 292C352 290.939 352.421 289.922 353.172 289.172C353.922 288.421 354.939 288 356 288H396C397.061 288 398.078 288.421 398.828 289.172C399.579 289.922 400 290.939 400 292V332C400 333.061 399.579 334.078 398.828 334.828C398.078 335.579 397.061 336 396 336H356C354.939 336 353.922 335.579 353.172 334.828C352.421 334.078 352 333.061 352 332V292ZM272 212C272 210.939 272.421 209.922 273.172 209.172C273.922 208.421 274.939 208 276 208H316C317.061 208 318.078 208.421 318.828 209.172C319.579 209.922 320 210.939 320 212V252C320 253.061 319.579 254.078 318.828 254.828C318.078 255.579 317.061 256 316 256H276C274.939 256 273.922 255.579 273.172 254.828C272.421 254.078 272 253.061 272 252V212ZM272 292C272 290.939 272.421 289.922 273.172 289.172C273.922 288.421 274.939 288 276 288H316C317.061 288 318.078 288.421 318.828 289.172C319.579 289.922 320 290.939 320 292V332C320 333.061 319.579 334.078 318.828 334.828C318.078 335.579 317.061 336 316 336H276C274.939 336 273.922 335.579 273.172 334.828C272.421 334.078 272 333.061 272 332V292ZM272 372C272 370.939 272.421 369.922 273.172 369.172C273.922 368.421 274.939 368 276 368H316C317.061 368 318.078 368.421 318.828 369.172C319.579 369.922 320 370.939 320 372V412C320 413.061 319.579 414.078 318.828 414.828C318.078 415.579 317.061 416 316 416H276C274.939 416 273.922 415.579 273.172 414.828C272.421 414.078 272 413.061 272 412V372ZM192 292C192 290.939 192.421 289.922 193.172 289.172C193.922 288.421 194.939 288 196 288H236C237.061 288 238.078 288.421 238.828 289.172C239.579 289.922 240 290.939 240 292V332C240 333.061 239.579 334.078 238.828 334.828C238.078 335.579 237.061 336 236 336H196C194.939 336 193.922 335.579 193.172 334.828C192.421 334.078 192 333.061 192 332V292ZM192 372C192 370.939 192.421 369.922 193.172 369.172C193.922 368.421 194.939 368 196 368H236C237.061 368 238.078 368.421 238.828 369.172C239.579 369.922 240 370.939 240 372V412C240 413.061 239.579 414.078 238.828 414.828C238.078 415.579 237.061 416 236 416H196C194.939 416 193.922 415.579 193.172 414.828C192.421 414.078 192 413.061 192 412V372ZM112 292C112 290.939 112.421 289.922 113.172 289.172C113.922 288.421 114.939 288 116 288H156C157.061 288 158.078 288.421 158.828 289.172C159.579 289.922 160 290.939 160 292V332C160 333.061 159.579 334.078 158.828 334.828C158.078 335.579 157.061 336 156 336H116C114.939 336 113.922 335.579 113.172 334.828C112.421 334.078 112 333.061 112 332V292ZM112 372C112 370.939 112.421 369.922 113.172 369.172C113.922 368.421 114.939 368 116 368H156C157.061 368 158.078 368.421 158.828 369.172C159.579 369.922 160 370.939 160 372V412C160 413.061 159.579 414.078 158.828 414.828C158.078 415.579 157.061 416 156 416H116C114.939 416 113.922 415.579 113.172 414.828C112.421 414.078 112 413.061 112 412V372ZM456 64H400.08V32H352.08V64H159.92V32H111.92V64H56C52.8603 63.9736 49.7464 64.5687 46.8376 65.7511C43.9289 66.9335 41.2829 68.6797 39.0521 70.8892C36.8212 73.0987 35.0496 75.7277 33.8393 78.6249C32.6289 81.5221 32.0038 84.6302 32 87.77V144H480V87.77C479.996 84.6302 479.371 81.5221 478.161 78.6249C476.95 75.7277 475.179 73.0987 472.948 70.8892C470.717 68.6797 468.071 66.9335 465.162 65.7511C462.254 64.5687 459.14 63.9736 456 64Z"/>
</svg>
