<svg viewBox="0 0 16 16" fill="currentColor" xmlns="http://www.w3.org/2000/svg">
<path d="M15.8337 12.3051C15.2637 12.4501 14.9112 12.3113 14.595 11.8363C13.885 10.7726 13.1012 9.75758 12.345 8.72383C12.2475 8.59008 12.1462 8.45883 12.02 8.29258C11.125 9.50008 10.2312 10.6501 9.39248 11.8463C9.09248 12.2738 8.77747 12.4601 8.21747 12.3088L11.5825 7.79258L8.44998 3.71383C8.98873 3.60883 9.36123 3.66258 9.69123 4.14508C10.42 5.21008 11.2237 6.22383 12.025 7.29633C12.8312 6.22758 13.625 5.21258 14.375 4.15758C14.6762 3.73008 15 3.56758 15.5412 3.72508C15.1312 4.26883 14.73 4.80383 14.3262 5.33508C13.7812 6.05133 13.2462 6.77633 12.6812 7.47758C12.48 7.72758 12.5125 7.89008 12.6925 8.12633C13.7375 9.50008 14.77 10.8876 15.8337 12.3051ZM0.166226 7.71758C0.256226 7.26633 0.316226 6.80633 0.441226 6.36383C1.19123 3.68508 4.26623 2.57133 6.37873 4.23133C7.61623 5.20508 7.92373 6.57758 7.86248 8.12508H0.887476C0.782476 10.9013 2.78123 12.5776 5.32873 11.7226C6.22248 11.4226 6.74873 10.7226 7.01248 9.84758C7.14623 9.40883 7.36748 9.34008 7.77998 9.46508C7.56873 10.5601 7.08998 11.4751 6.08998 12.0476C4.58998 12.9051 2.44873 12.6276 1.32248 11.4363C0.657476 10.7363 0.374976 9.86508 0.249976 8.92383C0.231226 8.77383 0.192476 8.62633 0.162476 8.47758C0.164976 8.22425 0.166226 7.97091 0.166226 7.71758ZM0.899976 7.53133H7.20373C7.16248 5.52383 5.91248 4.09758 4.20373 4.08508C2.32873 4.07008 0.981226 5.46258 0.899976 7.53133Z" fill="currentColor"/>
</svg>
