<svg viewBox="0 0 257 384" fill="none" xmlns="http://www.w3.org/2000/svg">
<path d="M64.1753 384C99.5033 384 128.175 355.328 128.175 320V256H64.1753C28.8473 256 0.175293 284.672 0.175293 320C0.175293 355.328 28.8473 384 64.1753 384Z" fill="#0ACF83"/>
<path d="M0.175293 192C0.175293 156.672 28.8473 128 64.1753 128H128.175V256H64.1753C28.8473 256 0.175293 227.328 0.175293 192Z" fill="#A259FF"/>
<path d="M0.175293 64C0.175293 28.672 28.8473 0 64.1753 0H128.175V128H64.1753C28.8473 128 0.175293 99.328 0.175293 64Z" fill="#F24E1E"/>
<path d="M128.175 0H192.175C227.503 0 256.175 28.672 256.175 64C256.175 99.328 227.503 128 192.175 128H128.175V0Z" fill="#FF7262"/>
<path d="M256.175 192C256.175 227.328 227.503 256 192.175 256C156.847 256 128.175 227.328 128.175 192C128.175 156.672 156.847 128 192.175 128C227.503 128 256.175 156.672 256.175 192Z" fill="#1ABCFE"/>
</svg>
