<svg viewBox="0 0 256 549" fill="none" xmlns="http://www.w3.org/2000/svg">
<path d="M175.622 61.1078C152.612 33.8068 132.797 6.0778 128.749 0.3198C128.653 0.218747 128.537 0.138293 128.409 0.08332C128.281 0.0283467 128.143 0 128.003 0C127.864 0 127.726 0.0283467 127.597 0.08332C127.469 0.138293 127.353 0.218747 127.257 0.3198C123.209 6.0788 103.394 33.8068 80.3831 61.1078C-117.124 313.004 111.491 482.998 111.491 482.998L113.408 484.278C115.112 510.512 119.374 548.266 119.374 548.266H136.419C136.419 548.266 140.679 510.726 142.384 484.279L144.302 482.785C144.515 482.999 373.13 313.005 175.622 61.1078ZM127.896 479.158C127.896 479.158 117.669 470.414 114.899 465.936V465.508L127.257 191.216C127.257 190.363 128.536 190.363 128.536 191.216L140.893 465.508V465.936C138.123 470.414 127.896 479.159 127.896 479.159" fill="currentColor"/>
</svg>
