<svg viewBox="0 0 128 128" fill="none" xmlns="http://www.w3.org/2000/svg">
<path d="M116.948 97.807C110.085 97.62 104.844 98.259 100.363 100.148C99.0899 100.685 97.0579 100.7 96.8499 102.295C97.5499 103.028 97.6589 104.124 98.2149 105.026C99.2849 106.756 101.091 109.078 102.703 110.294C104.465 111.624 106.28 113.045 108.168 114.196C111.526 116.243 115.275 117.413 118.508 119.464C120.414 120.674 122.307 122.197 124.166 123.561C125.086 124.236 125.703 125.285 126.898 125.708V125.514C126.27 124.714 126.108 123.616 125.532 122.781L122.995 120.244C120.515 116.952 117.366 114.06 114.019 111.659C111.35 109.743 105.377 107.155 104.264 104.05L104.069 103.855C105.961 103.641 108.176 102.957 109.923 102.488C112.857 101.702 115.479 101.905 118.508 101.123L122.605 99.952V99.172C121.074 97.601 119.982 95.521 118.313 94.099C113.943 90.379 109.175 86.662 104.265 83.562C101.541 81.844 98.1759 80.727 95.2889 79.27C94.3179 78.779 92.6119 78.524 91.9709 77.708C90.4539 75.776 89.6289 73.326 88.4599 71.075C86.0109 66.358 83.6059 61.207 81.4359 56.244C79.9559 52.86 78.9889 49.524 77.1429 46.488C68.2829 31.921 58.7469 23.13 43.9739 14.488C40.8299 12.65 37.0449 11.925 33.0449 10.975C30.8999 10.846 28.7529 10.715 26.6069 10.584C25.2959 10.038 23.9339 8.435 22.7049 7.657C17.8109 4.565 5.25687 -2.16 1.63287 6.682C-0.656129 12.263 5.05387 17.707 7.09487 20.536C8.52887 22.518 10.3639 24.743 11.3879 26.974C12.0619 28.441 12.1779 29.912 12.7549 31.463C14.1719 35.285 15.4069 39.443 17.2419 42.974C18.1689 44.762 19.1909 46.644 20.3639 48.242C21.0819 49.223 22.3149 49.655 22.5089 51.169C21.3049 52.855 21.2359 55.473 20.5589 57.609C17.5089 67.224 18.6599 79.176 23.0959 86.292C24.4559 88.478 27.6629 93.163 32.0709 91.365C35.9269 89.795 35.0659 84.927 36.1689 80.633C36.4179 79.66 36.2649 78.944 36.7539 78.292V78.487L40.2669 85.511C42.8669 89.698 47.4789 94.073 51.3889 97.025C53.4159 98.556 55.0119 101.202 57.6329 102.098V101.902H57.4379C56.9299 101.111 56.1349 100.783 55.4869 100.147C53.9599 98.65 52.2619 96.789 50.9999 95.074C47.4439 90.247 44.3019 84.964 41.4389 79.465C40.0709 76.838 38.8819 73.942 37.7299 71.269C37.2859 70.239 37.2919 68.68 36.3659 68.147C35.1029 70.105 33.2439 71.689 32.2679 74.001C30.7069 77.697 30.5059 82.205 29.9269 86.879C29.5849 87.001 29.7369 86.917 29.5359 87.073C26.8179 86.418 25.8639 83.621 24.8529 81.22C22.2989 75.15 21.8239 65.378 24.0719 58.391C24.6539 56.582 27.2819 50.89 26.2179 49.219C25.7099 47.553 24.0339 46.589 23.0969 45.316C21.9359 43.742 20.7779 41.67 19.9729 39.852C17.8829 35.121 16.9069 29.808 14.7059 25.024C13.6529 22.737 11.8739 20.422 10.4129 18.39C8.79587 16.137 6.98387 14.478 5.72987 11.755C5.28387 10.787 4.67887 9.237 5.33887 8.242C5.54887 7.571 5.84687 7.291 6.50987 7.072C7.64187 6.199 10.7939 7.362 11.9719 7.851C15.1009 9.151 17.7129 10.389 20.3639 12.145C21.6349 12.989 22.9229 14.62 24.4609 15.072H26.2169C28.9639 15.703 32.0409 15.267 34.6079 16.047C39.1439 17.425 43.2089 19.57 46.8999 21.901C58.1459 29.003 67.3419 39.111 73.6319 51.17C74.6439 53.112 75.0819 54.964 75.9729 57.024C77.7709 61.177 80.0359 65.45 81.8249 69.512C83.6109 73.564 85.3509 77.653 87.8749 81.025C89.2019 82.797 94.3259 83.748 96.6559 84.733C98.2879 85.422 100.963 86.142 102.51 87.073C105.463 88.855 108.325 90.976 111.096 92.928C112.479 93.903 116.736 96.044 116.948 97.807ZM29.7289 23.466C28.2979 23.439 27.2859 23.622 26.2159 23.855V24.05H26.4109C27.0939 25.452 28.2989 26.356 29.1419 27.563C29.7919 28.93 30.4429 30.295 31.0939 31.66L31.2879 31.467C32.4969 30.614 33.0499 29.253 33.0429 27.173C32.5589 26.664 32.4879 26.026 32.0679 25.418C31.5119 24.607 30.4329 24.146 29.7289 23.466Z" fill="#00618A"/>
</svg>
