<svg viewBox="0 0 64 64" fill="none" xmlns="http://www.w3.org/2000/svg">
<path d="M49.6001 23.6C58.4001 8.49995 40.3001 -1.30005 17.3001 9.19995C3.20011 15.7 -6.59989 35.7 13.0001 52.9C26.9001 65.1 62.0001 58.2 62.0001 44.2C62.0001 28.7 40.3001 39.4 49.6001 23.6ZM54.5001 48.2C51.7001 50.6 47.3001 50.6 44.5001 48.2C41.7001 45.8 41.7001 43.7 44.5001 41.3C47.3001 38.9 51.7001 38.9 54.5001 41.3C57.3001 43.7 57.2001 45.8 54.5001 48.2Z" fill="#F6C799"/>
<path d="M33.1999 45.1C30.0999 42.7 25.1999 42.7 22.0999 45.1C18.9999 47.5 18.9999 51.3001 22.0999 53.7001C25.1999 56.1001 30.0999 56.1001 33.1999 53.7001C36.1999 51.3001 36.1999 47.4 33.1999 45.1Z" fill="#2CAECE"/>
<path d="M19.5998 33.6C16.1998 32 11.5998 33 9.19984 35.9C6.79984 38.8 7.59984 42.4 10.9998 44C14.3998 45.6 18.9998 44.6 21.3998 41.7C23.7998 38.8 22.9998 35.2 19.5998 33.6Z" fill="#FDF516"/>
<path d="M16.9999 20.6C14.0999 19 9.79992 19.7 7.59992 22.2C5.29992 24.7 5.89992 28 8.79993 29.5C11.6999 31.1 15.9999 30.4 18.1999 27.9C20.3999 25.4 19.8999 22.2 16.9999 20.6Z" fill="#FF5555"/>
<path d="M28.3998 10.8C25.5998 9.19997 21.4998 9.79997 19.2998 12.2C17.0998 14.6 17.4998 17.7 20.3998 19.3C23.1998 20.9 27.2998 20.3 29.4998 17.9C31.6998 15.5 31.1998 12.3 28.3998 10.8Z" fill="#83BF4F"/>
<path d="M44.7002 9.69997C42.5002 7.89997 38.8002 7.49997 36.2002 8.69997C33.7002 9.89997 33.4002 12.4 35.6002 14.2C37.8002 16 41.5002 16.4 44.1002 15.2C46.6002 13.9 46.8002 11.5 44.7002 9.69997Z" fill="#9156B7"/>
<path d="M40 42.1C38.1 44.2 28.5 46.1 28.5 46.1C28.5 46.1 32.3 42.6 34 36.9C34.8 34.2 38.7 34.2 40.4 35.7C42.1 37.1 41.9 40 40 42.1Z" fill="#947151"/>
<path d="M58.7 12.3C59.7 12.2 61.6 13.9 61.7 14.8C62 19.1 44 34.5 44 34.5L41 32C41 32 54.3 12.6 58.7 12.3Z" fill="#666666"/>
<path d="M38.3999 34.9L41.3999 37.4L43.9999 34.5L40.9999 32L38.3999 34.9Z" fill="#CCCCCC"/>
</svg>
