<svg viewBox="0 0 24 24" fill="none" xmlns="http://www.w3.org/2000/svg">
<path d="M16.805 1C15.9248 1.00824 15.0496 1.13265 14.202 1.37L14.142 1.388C13.6083 1.29649 13.0684 1.24601 12.527 1.237C11.414 1.218 10.457 1.48 9.687 1.917C8.927 1.661 7.351 1.22 5.69 1.308C4.533 1.369 3.271 1.71 2.336 2.668C1.403 3.626 0.909999 5.108 1.014 7.125C1.042 7.682 1.205 8.589 1.477 9.765C1.747 10.94 2.129 12.315 2.604 13.57C3.079 14.825 3.6 15.954 4.414 16.72C4.82 17.104 5.379 17.427 6.038 17.4C6.501 17.382 6.92 17.185 7.281 16.894C7.457 17.119 7.645 17.217 7.816 17.308C8.031 17.422 8.241 17.5 8.458 17.552C9.05892 17.7061 9.6848 17.737 10.298 17.643C10.565 17.6 10.846 17.516 11.126 17.396C11.136 17.698 11.148 17.994 11.161 18.294C11.199 19.244 11.224 20.121 11.518 20.89C11.565 21.016 11.694 21.663 12.205 22.234C12.715 22.806 13.715 23.162 14.853 22.926C15.656 22.759 16.678 22.458 17.356 21.522C18.026 20.596 18.329 19.268 18.389 17.113C18.404 16.997 18.422 16.898 18.441 16.805L18.601 16.819H18.619C19.476 16.857 20.406 16.739 21.183 16.389C21.871 16.079 22.391 15.767 22.77 15.212C22.865 15.075 22.969 14.909 22.997 14.622C23.025 14.337 22.857 13.889 22.576 13.683C22.013 13.269 21.66 13.426 21.281 13.503C20.9077 13.583 20.529 13.6273 20.145 13.636C21.238 11.852 22.021 9.956 22.468 8.278C22.732 7.288 22.881 6.375 22.893 5.577C22.905 4.779 22.838 4.072 22.345 3.46C20.804 1.55 18.637 1.022 16.961 1.004C16.909 1.00267 16.857 1.00233 16.805 1.003V1ZM16.761 1.587C18.346 1.572 20.372 2.004 21.826 3.807C22.153 4.212 22.25 4.804 22.239 5.534C22.227 6.263 22.088 7.135 21.834 8.091C21.341 9.943 20.409 12.101 19.096 14.039C19.1426 14.0713 19.193 14.0978 19.246 14.118C19.52 14.228 20.144 14.322 21.391 14.074C21.704 14.009 21.934 13.966 22.172 14.142C22.229 14.1893 22.2742 14.2491 22.3042 14.3167C22.3342 14.3844 22.3482 14.4581 22.345 14.532C22.3318 14.6437 22.2893 14.7499 22.222 14.84C21.982 15.191 21.506 15.524 20.896 15.798C20.357 16.042 19.583 16.169 18.897 16.177C18.553 16.18 18.236 16.154 17.967 16.073L17.949 16.067C17.845 17.038 17.606 18.957 17.451 19.832C17.326 20.538 17.108 21.099 16.691 21.519C16.275 21.939 15.687 22.192 14.895 22.357C13.914 22.561 13.199 22.341 12.738 21.964C12.278 21.589 12.067 21.09 11.94 20.784C11.853 20.574 11.808 20.301 11.764 19.936C11.7156 19.499 11.6833 19.0604 11.667 18.621C11.6383 17.8507 11.629 17.0798 11.639 16.309C11.229 16.672 10.719 16.914 10.172 17.005C9.522 17.112 8.94 17.007 8.593 16.923C8.42288 16.8811 8.25838 16.819 8.103 16.738C7.941 16.655 7.788 16.561 7.686 16.375C7.6259 16.2688 7.6067 16.1443 7.632 16.025C7.66475 15.9038 7.7373 15.797 7.838 15.722C8.026 15.574 8.273 15.492 8.646 15.416C9.326 15.281 9.563 15.188 9.707 15.077C9.83 14.982 9.969 14.79 10.215 14.507L10.212 14.47C9.77359 14.4571 9.3438 14.345 8.955 14.142C8.814 14.286 8.09 15.029 7.207 16.059C6.836 16.49 6.426 16.737 5.993 16.755C5.56 16.773 5.169 16.561 4.837 16.249C4.172 15.623 3.642 14.546 3.18 13.329C2.72 12.111 2.344 10.755 2.078 9.6C1.81 8.445 1.652 7.514 1.63 7.065C1.53 5.156 1.99 3.87 2.78 3.059C3.57 2.248 4.652 1.94 5.708 1.882C7.602 1.776 9.401 2.417 9.765 2.555C10.466 2.093 11.369 1.805 12.498 1.823C13.0331 1.83044 13.5657 1.89752 14.086 2.023L14.105 2.015C14.3343 1.937 14.567 1.87167 14.803 1.819C15.4455 1.67398 16.1014 1.59689 16.76 1.589L16.761 1.587ZM16.904 2.201H16.767C16.226 2.20829 15.6868 2.26722 15.157 2.377C16.2087 2.83508 17.1328 3.54289 17.849 4.439C18.2829 4.9751 18.6428 5.56706 18.919 6.199C19.023 6.441 19.093 6.646 19.132 6.804C19.152 6.884 19.166 6.951 19.17 7.021C19.1737 7.06531 19.17 7.10992 19.159 7.153L19.153 7.165C19.182 7.968 18.977 8.512 18.952 9.278C18.933 9.834 19.079 10.487 19.115 11.198C19.149 11.868 19.066 12.603 18.618 13.325C18.6553 13.369 18.6913 13.413 18.726 13.457C19.911 11.647 20.766 9.643 21.221 7.936C21.464 7.016 21.594 6.183 21.605 5.523C21.615 4.863 21.488 4.384 21.326 4.185C20.058 2.612 18.343 2.212 16.904 2.201ZM12.379 2.435C11.262 2.437 10.46 2.765 9.853 3.255C9.226 3.762 8.806 4.455 8.53 5.166C8.26285 5.87653 8.0995 6.62186 8.045 7.379L8.058 7.372C8.395 7.188 8.838 7.005 9.312 6.899C9.787 6.793 10.298 6.76 10.761 6.934C11.224 7.108 11.607 7.518 11.746 8.14C12.411 11.126 11.539 12.236 11.217 13.073C11.0962 13.3768 10.992 13.6869 10.905 14.002C10.945 13.9907 10.9853 13.9827 11.026 13.978C11.2017 13.9685 11.3769 14.0029 11.536 14.078C11.86 14.208 12.082 14.48 12.202 14.792C12.2333 14.8747 12.2557 14.9613 12.269 15.052C12.2823 15.09 12.2887 15.129 12.288 15.169C12.2521 16.3108 12.2561 17.4535 12.3 18.595C12.322 19.089 12.354 19.523 12.395 19.866C12.435 20.208 12.493 20.468 12.53 20.556C12.65 20.85 12.827 21.234 13.147 21.495C13.467 21.756 13.924 21.929 14.761 21.755C15.487 21.604 15.935 21.395 16.235 21.092C16.533 20.791 16.712 20.372 16.826 19.729C16.997 18.766 17.341 15.975 17.382 15.449C17.364 15.054 17.424 14.749 17.554 14.517C17.689 14.279 17.897 14.133 18.076 14.054C18.166 14.014 18.25 13.988 18.319 13.969C18.2455 13.8673 18.1688 13.7679 18.089 13.671C17.8304 13.3685 17.6184 13.0291 17.46 12.664C17.3837 12.5138 17.3026 12.3661 17.217 12.221C17.092 12.001 16.933 11.726 16.767 11.417C16.434 10.798 16.072 10.048 15.884 9.317C15.697 8.588 15.669 7.833 16.149 7.3C16.575 6.827 17.321 6.631 18.442 6.741C18.409 6.645 18.389 6.565 18.333 6.437C18.08 5.85599 17.7493 5.31202 17.35 4.82C16.4 3.642 14.863 2.474 12.487 2.436H12.379V2.435ZM6.103 2.482C5.983 2.482 5.863 2.48533 5.743 2.492C4.789 2.545 3.887 2.814 3.242 3.478C2.595 4.141 2.17 5.229 2.262 7.031C2.281 7.371 2.434 8.327 2.696 9.461C2.958 10.597 3.33 11.932 3.776 13.111C4.222 14.291 4.764 15.318 5.278 15.804C5.537 16.047 5.762 16.145 5.966 16.137C6.171 16.127 6.417 16.013 6.719 15.662C7.26899 15.0184 7.83928 14.3924 8.429 13.785C8.01233 13.4356 7.69157 12.9858 7.497 12.478C7.30401 11.9751 7.24542 11.4305 7.327 10.898C7.424 10.22 7.437 9.586 7.426 9.086C7.414 8.598 7.378 8.274 7.378 8.071V8.043C7.37697 6.98614 7.56632 5.93773 7.937 4.948C8.201 4.266 8.595 3.573 9.186 3.012C8.606 2.827 7.576 2.545 6.461 2.492C6.3411 2.48558 6.22106 2.48225 6.101 2.482H6.103ZM17.817 7.324C17.176 7.332 16.816 7.493 16.627 7.703C16.359 8.001 16.334 8.523 16.5 9.167C16.666 9.811 17.007 10.532 17.329 11.13C17.489 11.43 17.645 11.7 17.771 11.918C17.898 12.138 17.991 12.294 18.047 12.428C18.1003 12.5487 18.1563 12.659 18.215 12.759C18.463 12.25 18.508 11.751 18.482 11.23C18.449 10.586 18.295 9.927 18.318 9.26C18.343 8.48 18.502 7.971 18.516 7.368C18.2841 7.33974 18.0507 7.32504 17.817 7.324ZM10.037 7.429C9.84111 7.43049 9.64596 7.45329 9.455 7.497C9.07534 7.58651 8.70894 7.72501 8.365 7.909C8.24967 7.969 8.13967 8.03867 8.035 8.118L8.015 8.136C8.021 8.27 8.048 8.595 8.06 9.072C8.07 9.595 8.058 10.262 7.954 10.982C7.728 12.55 8.9 13.848 10.278 13.85C10.358 13.528 10.491 13.202 10.623 12.858C11.007 11.855 11.762 11.124 11.126 8.269C11.022 7.802 10.816 7.613 10.532 7.506C10.373 7.45078 10.2053 7.4247 10.037 7.429ZM17.517 7.616H17.565C17.6277 7.618 17.6843 7.62467 17.735 7.636C17.781 7.64525 17.825 7.66251 17.865 7.687C17.8832 7.69773 17.8989 7.71218 17.9112 7.72941C17.9234 7.74665 17.9319 7.76627 17.936 7.787V7.795C17.9386 7.83895 17.9267 7.88254 17.902 7.919C17.8741 7.96942 17.8391 8.01556 17.798 8.056C17.7011 8.15884 17.5733 8.22729 17.434 8.251C17.2974 8.26717 17.1596 8.23343 17.046 8.156C17.0003 8.12579 16.9589 8.08945 16.923 8.048C16.8927 8.01562 16.8719 7.97547 16.863 7.932C16.8608 7.91061 16.8633 7.88901 16.8702 7.86865C16.8771 7.84829 16.8883 7.82965 16.903 7.814C16.935 7.78044 16.9725 7.7527 17.014 7.732C17.1724 7.65928 17.3438 7.61915 17.518 7.614L17.517 7.616ZM10.129 7.77C10.179 7.77 10.2313 7.774 10.286 7.782C10.43 7.802 10.559 7.839 10.657 7.894C10.705 7.91867 10.747 7.951 10.783 7.991C10.8017 8.013 10.8157 8.03733 10.825 8.064C10.8343 8.09067 10.8373 8.11833 10.834 8.147C10.8249 8.20002 10.8002 8.24912 10.763 8.288C10.7243 8.33458 10.6788 8.37504 10.628 8.408C10.5038 8.49257 10.3531 8.52918 10.204 8.511C10.0527 8.48657 9.91356 8.41314 9.808 8.302C9.76412 8.25724 9.72645 8.20679 9.696 8.152C9.66486 8.10405 9.65109 8.04687 9.657 7.99C9.671 7.89 9.756 7.84 9.837 7.81C9.93064 7.7803 10.0289 7.76809 10.127 7.774L10.129 7.77ZM18.689 14.502H18.686C18.547 14.552 18.433 14.572 18.336 14.612C18.2394 14.6478 18.1593 14.718 18.111 14.809C18.051 14.914 18.001 15.101 18.016 15.419C18.0591 15.4474 18.1063 15.469 18.156 15.483C18.317 15.531 18.588 15.563 18.891 15.558C19.493 15.551 20.235 15.415 20.629 15.237C20.952 15.091 21.252 14.901 21.52 14.673C20.203 14.937 19.46 14.867 19.003 14.684C18.8903 14.638 18.7846 14.5774 18.689 14.502ZM11.101 14.587H11.081C11.031 14.591 10.958 14.607 10.818 14.759C10.488 15.117 10.374 15.341 10.102 15.551C9.832 15.761 9.479 15.872 8.775 16.012C8.552 16.056 8.425 16.105 8.339 16.144C8.367 16.166 8.364 16.172 8.405 16.193C8.508 16.248 8.641 16.296 8.747 16.323C9.05 16.396 9.547 16.482 10.066 16.396C10.585 16.31 11.124 16.069 11.584 15.443C11.664 15.335 11.672 15.175 11.607 15.003C11.54 14.833 11.396 14.685 11.294 14.643C11.2331 14.6143 11.1679 14.5961 11.101 14.589V14.587Z" fill="currentColor"/>
</svg>
