<svg viewBox="0 0 257 310" fill="currentColor" xmlns="http://www.w3.org/2000/svg">
<path d="M254.488 235.519L148.175 9.749C146.854 6.97103 144.807 4.60188 142.25 2.89223C139.692 1.18258 136.72 0.19604 133.648 0.0369961C130.571 -0.169261 127.495 0.472324 124.757 1.89198C122.018 3.31163 119.721 5.455 118.115 8.089L2.80841 194.848C1.05511 197.668 0.142036 200.929 0.176219 204.25C0.210402 207.57 1.19043 210.812 3.00141 213.595L59.3754 300.896C61.5082 304.173 64.6433 306.673 68.313 308.023C71.9828 309.372 75.9905 309.499 79.7384 308.385L243.337 259.993C245.801 259.273 248.081 258.032 250.023 256.355C251.966 254.678 253.526 252.603 254.597 250.271C255.654 247.951 256.192 245.429 256.175 242.88C256.157 240.331 255.585 237.816 254.496 235.511L254.488 235.519ZM230.686 245.202L91.8634 286.252C87.6284 287.512 83.5634 283.841 84.4444 279.567L134.042 42.083C134.969 37.64 141.105 36.936 143.045 41.048L234.859 236.021C235.265 236.89 235.478 237.836 235.483 238.795C235.487 239.754 235.284 240.702 234.887 241.575C234.489 242.448 233.907 243.224 233.181 243.85C232.455 244.476 231.601 244.937 230.679 245.201L230.686 245.202Z"/>
</svg>
