<svg viewBox="0 0 39 34" fill="currentColor" xmlns="http://www.w3.org/2000/svg">
<path d="M31.3878 11.0088C30.9815 10.8694 30.5718 10.7403 30.159 10.6215C30.2284 10.3382 30.2922 10.0583 30.3489 9.78332C31.2791 5.26773 30.671 1.62988 28.5938 0.432132C26.6023 -0.716113 23.3453 0.481193 20.056 3.3439C19.7318 3.62654 19.4148 3.91732 19.1053 4.21597C18.8981 4.01738 18.6873 3.82264 18.4729 3.63186C15.0255 0.570965 11.57 -0.719096 9.49509 0.482088C7.50535 1.63391 6.91616 5.05374 7.75364 9.33326C7.83696 9.75711 7.93103 10.1788 8.03578 10.5978C7.54666 10.7368 7.07468 10.8847 6.62299 11.0422C2.58117 12.4514 0 14.6598 0 16.9505C0 19.3163 2.771 21.6893 6.98073 23.1282C7.32203 23.2443 7.66616 23.352 8.01281 23.451C7.90023 23.9024 7.80028 24.3568 7.71308 24.8137C6.91467 29.019 7.53816 32.358 9.52253 33.5025C11.5721 34.6844 15.012 33.4697 18.3615 30.5416C18.6331 30.3036 18.8987 30.0588 19.1581 29.8075C19.4933 30.1309 19.8374 30.4449 20.19 30.7491C23.4346 33.5409 26.639 34.6683 28.6214 33.5207C30.669 32.3353 31.3346 28.7483 30.4706 24.3842C30.4025 24.0423 30.3262 23.7021 30.2416 23.3639C30.4832 23.2923 30.7203 23.2187 30.9515 23.142C35.3279 21.6921 38.1754 19.3479 38.1754 16.9505C38.1754 14.6514 35.5109 12.4282 31.3878 11.0088ZM30.4386 21.5941C30.2299 21.6632 30.0157 21.7298 29.7974 21.7947C29.3143 20.2652 28.6623 18.6388 27.8643 16.9584C28.6258 15.318 29.2527 13.7124 29.7223 12.1928C30.1128 12.3059 30.4917 12.425 30.8571 12.5507C34.3898 13.767 36.5446 15.565 36.5446 16.9505C36.5446 18.4262 34.2174 20.3419 30.4386 21.5941ZM28.8708 24.701C29.2528 26.6306 29.3072 28.3753 29.0542 29.7394C28.8269 30.965 28.3697 31.782 27.8042 32.1094C26.6013 32.8058 24.0284 31.9006 21.2537 29.5128C20.9257 29.23 20.6056 28.9381 20.2938 28.6375C21.3696 27.4611 22.4446 26.0935 23.4938 24.5745C25.3394 24.4108 27.0829 24.1429 28.6641 23.7774C28.7402 24.0836 28.8092 24.3915 28.8708 24.701ZM13.0148 31.989C11.8395 32.404 10.9033 32.416 10.3373 32.0897C9.13317 31.3952 8.63257 28.7141 9.3154 25.1179C9.39657 24.6929 9.48951 24.2703 9.59411 23.8505C11.1578 24.1965 12.8887 24.4452 14.7385 24.5952C15.7949 26.0815 16.901 27.4476 18.0157 28.6439C17.7788 28.8731 17.5363 29.0965 17.2884 29.3138C15.8072 30.6084 14.3229 31.527 13.0148 31.989ZM7.50833 21.585C5.64683 20.9487 4.10953 20.1218 3.05582 19.2195C2.10889 18.4087 1.63096 17.6036 1.63096 16.9505C1.63096 15.5603 3.70331 13.7873 7.15983 12.5822C7.57931 12.4361 8.01833 12.2981 8.4739 12.1687C8.95169 13.7225 9.5783 15.3472 10.3345 16.9901C9.56846 18.6573 8.9329 20.3079 8.45049 21.8801C8.13407 21.7895 7.81992 21.6911 7.50833 21.585ZM9.35417 9.01996C8.63674 5.35348 9.11319 2.5877 10.3123 1.89353C11.5894 1.15418 14.4135 2.20833 17.3901 4.85138C17.5842 5.02412 17.7752 5.20037 17.9629 5.38002C16.8537 6.57106 15.7578 7.92704 14.7108 9.40455C12.9154 9.57097 11.1967 9.83819 9.61663 10.1962C9.51928 9.80646 9.43176 9.41414 9.35417 9.01996ZM25.8214 13.0862C25.4481 12.4416 25.0611 11.805 24.6604 11.177C25.8785 11.3311 27.0455 11.5355 28.1414 11.7854C27.8124 12.84 27.4024 13.9425 26.9196 15.0728C26.5668 14.4034 26.2006 13.7411 25.8214 13.0862ZM19.1061 6.54557C19.8582 7.36052 20.6116 8.27032 21.3526 9.25751C19.8494 9.18652 18.3438 9.18622 16.8406 9.25662C17.5823 8.27852 18.3421 7.36992 19.1061 6.54557ZM12.3477 13.0974C11.9731 13.747 11.6138 14.4052 11.27 15.0715C10.7951 13.9452 10.3888 12.8376 10.057 11.7681C11.1462 11.5245 12.3077 11.3252 13.518 11.174C13.1129 11.8059 12.7227 12.4473 12.3477 13.0974ZM13.5527 22.8429C12.3023 22.7033 11.1234 22.5144 10.0345 22.2773C10.3715 21.1887 10.7868 20.0576 11.2719 18.9071C11.6171 19.5739 11.9779 20.2325 12.3541 20.8824C12.7409 21.5504 13.1414 22.2048 13.5527 22.8429ZM19.1511 27.4702C18.378 26.6363 17.6071 25.7136 16.8542 24.7214C17.5852 24.75 18.3303 24.7646 19.0877 24.7646C19.8658 24.7646 20.635 24.7472 21.3921 24.7135C20.6487 25.7236 19.8982 26.6476 19.1511 27.4702ZM26.935 18.8483C27.4453 20.0115 27.8754 21.1366 28.2169 22.2066C27.1101 22.4592 25.915 22.6626 24.6558 22.8137C25.0593 22.174 25.45 21.5264 25.8278 20.8712C26.2118 20.2052 26.581 19.5308 26.935 18.8483ZM24.4151 20.0564C23.8369 21.0609 23.2261 22.0464 22.5837 23.0112C21.4202 23.0937 20.2541 23.1346 19.0877 23.134C17.8997 23.134 16.7441 23.097 15.6313 23.0248C14.9723 22.0622 14.3498 21.075 13.7654 20.0653C13.1837 19.061 12.6405 18.0349 12.1367 16.9894C12.6392 15.9436 13.1809 14.917 13.7606 13.9119L13.7605 13.9121C14.3399 12.9067 14.9574 11.9237 15.6115 10.9653C16.7468 10.8794 17.911 10.8346 19.0876 10.8346C20.2695 10.8346 21.4354 10.8798 22.5703 10.9663C23.2178 11.9234 23.8314 12.903 24.4098 13.9033C24.9914 14.9062 25.5403 15.9277 26.0555 16.9663C25.5455 18.0154 24.9984 19.0461 24.4151 20.0564ZM27.7793 1.84492C29.0576 2.58218 29.5548 5.55524 28.7516 9.45405C28.7003 9.70279 28.6428 9.95615 28.5801 10.2131C26.9961 9.84744 25.2763 9.57559 23.4757 9.40663C22.4267 7.91287 21.3398 6.55481 20.2486 5.37913C20.5346 5.10348 20.8274 4.83497 21.1267 4.57387C23.9451 2.12124 26.5792 1.15284 27.7793 1.84492ZM19.0877 13.5415C20.9704 13.5415 22.4967 15.0678 22.4967 16.9505C22.4967 18.8331 20.9704 20.3594 19.0877 20.3594C17.205 20.3594 15.6788 18.8331 15.6788 16.9505C15.6788 15.0678 17.205 13.5415 19.0877 13.5415Z"/>
</svg>
