<svg viewBox="0 0 512 125" fill="currentColor" xmlns="http://www.w3.org/2000/svg">
<path d="M493.858 18.204C495.955 20.309 498.432 21.361 501.289 21.361C504.235 21.361 506.756 20.309 508.854 18.204C510.951 16.099 512 13.614 512 10.748C512 7.882 510.951 5.374 508.854 3.224C506.756 1.074 504.234 0 501.289 0C498.432 0 495.955 1.075 493.858 3.224C491.76 5.374 490.711 7.882 490.711 10.748C490.711 13.614 491.76 16.099 493.858 18.204ZM267.98 45.684C267.98 45.904 267.802 46.083 267.582 46.083H252.85V74.027C252.85 76.356 253.43 78.057 254.591 79.132C255.751 80.207 257.447 80.812 259.679 80.946C261.613 81.062 263.949 81.061 266.688 80.942L267.359 80.911L267.561 80.901C267.615 80.8983 267.669 80.9066 267.72 80.9253C267.771 80.9441 267.817 80.973 267.856 81.0102C267.896 81.0474 267.927 81.0921 267.948 81.1418C267.97 81.1914 267.981 81.2449 267.981 81.299V96.24C267.981 96.338 267.945 96.4325 267.879 96.5054C267.814 96.5783 267.724 96.6244 267.626 96.635L267.356 96.665C255.815 97.899 247.655 96.757 242.876 93.238C238.01 89.655 235.578 83.251 235.578 74.026V46.083H224.328C224.223 46.0827 224.121 46.0406 224.047 45.9658C223.972 45.891 223.93 45.7896 223.93 45.684V29.822C223.93 29.602 224.108 29.424 224.328 29.424H235.578V18.328C235.579 18.1736 235.624 18.0226 235.708 17.8933C235.792 17.7639 235.912 17.6617 236.053 17.599L252.291 10.429C252.352 10.402 252.418 10.3906 252.484 10.3958C252.551 10.401 252.614 10.4227 252.67 10.4588C252.726 10.495 252.771 10.5445 252.803 10.6029C252.835 10.6613 252.851 10.7266 252.851 10.793V29.423H267.581C267.801 29.423 267.981 29.603 267.981 29.823L267.98 45.684ZM299.3 40.977C300.907 36.677 303.562 33.453 307.266 31.304C310.656 29.337 314.402 28.27 318.502 28.103L318.78 28.093L319.249 28.085C319.302 28.0842 319.354 28.0939 319.403 28.1135C319.452 28.1331 319.496 28.1622 319.534 28.1991C319.571 28.2361 319.601 28.2801 319.621 28.3287C319.642 28.3772 319.652 28.4294 319.652 28.482V46.712C319.652 47.092 319.321 47.385 318.942 47.351C313.962 46.899 309.489 47.998 305.526 50.65C301.376 53.426 299.3 58.039 299.3 64.487V96.197C299.3 96.3029 299.258 96.4045 299.183 96.4795C299.109 96.5545 299.007 96.5967 298.901 96.597H282.426C282.374 96.5969 282.322 96.5864 282.274 96.5662C282.225 96.5461 282.181 96.5166 282.144 96.4794C282.107 96.4423 282.078 96.3982 282.058 96.3498C282.038 96.3013 282.028 96.2494 282.028 96.197V29.822C282.028 29.602 282.206 29.424 282.426 29.424H298.901C299.121 29.424 299.3 29.602 299.3 29.822V40.977ZM358.747 27.541C368.119 27.541 375.394 30.81 380.571 37.348V29.82C380.571 29.6 380.75 29.422 380.97 29.422H397.445C397.665 29.422 397.843 29.6 397.843 29.82V96.197C397.843 96.417 397.665 96.595 397.445 96.595H380.97C380.918 96.5951 380.866 96.5849 380.818 96.565C380.769 96.5451 380.725 96.5158 380.688 96.4788C380.651 96.4418 380.622 96.3979 380.602 96.3495C380.581 96.3012 380.571 96.2493 380.571 96.197V88.669C375.394 95.207 368.119 98.476 358.747 98.476C349.82 98.476 342.167 95.05 335.784 88.199C329.402 81.347 326.211 72.95 326.211 63.009C326.211 53.067 329.401 44.67 335.784 37.819C342.167 30.967 349.82 27.541 358.747 27.541ZM361.959 44.066C356.603 44.066 352.185 45.836 348.703 49.373C345.223 52.911 343.481 57.456 343.481 63.009C343.481 68.563 345.222 73.13 348.703 76.712C352.185 80.206 356.603 81.952 361.959 81.952C367.315 81.952 371.755 80.184 375.281 76.646C378.807 73.108 380.57 68.563 380.57 63.009C380.57 57.456 378.807 52.911 375.28 49.373C371.755 45.835 367.315 44.066 361.959 44.066ZM449.765 27.541C458.78 27.541 466.48 30.967 472.862 37.818C479.244 44.67 482.435 53.067 482.435 63.008C482.435 72.95 479.244 81.347 472.862 88.198C466.48 95.05 458.78 98.476 449.765 98.476C440.393 98.476 433.162 95.207 428.075 88.669V123.066C428.075 123.172 428.033 123.273 427.958 123.348C427.883 123.423 427.782 123.465 427.676 123.465H411.201C411.095 123.465 410.994 123.423 410.919 123.348C410.844 123.273 410.802 123.172 410.802 123.066V29.82C410.802 29.6 410.981 29.422 411.201 29.422H427.676C427.896 29.422 428.075 29.6 428.075 29.82V37.348C433.162 30.81 440.393 27.541 449.765 27.541ZM446.55 44.066C441.195 44.066 436.776 45.836 433.295 49.373C429.814 52.911 428.073 57.456 428.073 63.009C428.073 68.563 429.813 73.13 433.295 76.712C436.776 80.206 441.195 81.952 446.55 81.952C451.906 81.952 456.347 80.184 459.873 76.646C463.398 73.108 465.161 68.563 465.161 63.009C465.161 57.456 463.398 52.911 459.873 49.373C456.347 45.835 451.906 44.066 446.55 44.066ZM493.12 96.596C493.015 96.596 492.913 96.5541 492.838 96.4795C492.764 96.4049 492.721 96.3036 492.721 96.198V29.822C492.721 29.7163 492.764 29.6149 492.838 29.5402C492.913 29.4654 493.014 29.4233 493.12 29.423H509.595C509.701 29.4233 509.802 29.4654 509.877 29.5402C509.952 29.6149 509.994 29.7163 509.994 29.822V96.198C509.994 96.3037 509.952 96.4051 509.877 96.4798C509.802 96.5546 509.701 96.5967 509.595 96.597L493.12 96.596ZM184.81 52.866C182.444 51.746 181.262 50.29 181.262 48.499C181.262 46.797 181.998 45.454 183.471 44.469C184.944 43.483 186.796 42.991 189.027 42.991C193.307 42.991 196.539 44.664 198.725 48.011C198.877 48.245 199.175 48.34 199.429 48.227L214.002 41.757C214.053 41.7344 214.099 41.7012 214.136 41.6597C214.174 41.6182 214.202 41.5693 214.219 41.5161C214.236 41.4629 214.242 41.4067 214.235 41.3512C214.229 41.2957 214.212 41.2421 214.183 41.194L213.881 40.687C213.804 40.561 213.731 40.441 213.671 40.347C211.172 36.407 207.941 33.471 203.89 31.235C199.426 28.772 194.473 27.541 189.027 27.541C181.797 27.541 175.75 29.444 170.885 33.251C166.02 37.057 163.588 42.274 163.588 48.902C163.588 53.291 164.771 56.94 167.136 59.852C169.502 62.762 172.38 64.889 175.772 66.232C178.843 67.4524 181.979 68.5036 185.165 69.381L185.948 69.591C189.34 70.487 192.218 71.495 194.584 72.614C196.949 73.734 198.132 75.189 198.132 76.98C198.132 80.832 195.052 82.758 188.894 82.758C183.031 82.758 178.968 80.583 176.705 76.236C176.614 76.0547 176.458 75.915 176.268 75.8455C176.077 75.776 175.867 75.7819 175.681 75.862L161.15 82.322C161.101 82.3435 161.058 82.3747 161.021 82.4135C160.985 82.4524 160.956 82.4982 160.938 82.5482C160.92 82.5982 160.911 82.6514 160.914 82.7047C160.917 82.7579 160.93 82.81 160.953 82.858L161.119 83.198C166.197 93.383 175.455 98.476 188.894 98.476C196.57 98.476 202.974 96.618 208.107 92.9C213.24 89.184 215.807 83.877 215.807 76.98C215.807 72.413 214.623 68.606 212.257 65.56C209.892 62.516 207.014 60.344 203.622 59.045C200.549 57.8649 197.413 56.8553 194.229 56.021L193.446 55.821C190.054 54.97 187.176 53.986 184.81 52.866Z"/>
<path d="M0 43.004C0 22.732 0 12.596 6.298 6.298C12.596 0 22.732 0 43.004 0H81.046C101.318 0 111.454 0 117.752 6.298C124.05 12.596 124.05 22.732 124.05 43.004V81.046C124.05 101.318 124.05 111.454 117.752 117.752C111.454 124.05 101.318 124.05 81.046 124.05H43.004C22.732 124.05 12.596 124.05 6.298 117.752C0 111.454 0 101.318 0 81.046V43.004Z"/>
<path d="M85.5941 37.628H43.8311V58.924H65.1261V80.219H86.4211V38.455C86.4211 38.2357 86.3339 38.0253 86.1788 37.8702C86.0237 37.7151 85.8134 37.628 85.5941 37.628Z" fill="white"/>
<path d="M64.2988 58.924H65.2988V59.924H64.2988V58.924Z" fill="white"/>
<path d="M43.8301 58.924H64.3001C64.7571 58.924 65.1271 59.294 65.1271 59.75V80.22H44.6581C44.4387 80.22 44.2284 80.1329 44.0733 79.9778C43.9182 79.8227 43.8311 79.6123 43.8311 79.393L43.8301 58.924Z"/>
<path d="M65.1261 80.219H86.4211L65.8311 100.808C65.7733 100.866 65.6998 100.905 65.6197 100.921C65.5395 100.937 65.4565 100.929 65.3811 100.897C65.3056 100.866 65.2411 100.813 65.1957 100.745C65.1503 100.678 65.1261 100.598 65.1261 100.516V80.219ZM43.8301 58.924H23.5351C23.4533 58.9239 23.3735 58.8996 23.3055 58.8542C23.2375 58.8087 23.1845 58.7442 23.1532 58.6687C23.1219 58.5932 23.1136 58.5101 23.1294 58.4299C23.1452 58.3497 23.1844 58.2759 23.2421 58.218L43.8321 37.628V58.924H43.8301Z"/>
</svg>
